<svg xmlns="http://www.w3.org/2000/svg" clip-rule="evenodd" fill-rule="evenodd" image-rendering="optimizeQuality" shape-rendering="geometricPrecision" text-rendering="geometricPrecision" viewBox="0 0 126.62 125.57" style="fill: rgb(0, 0, 0);" original_string_length="2817" id="__id2_svg">
    <defs>
        <linearGradient
            gradientUnits="userSpaceOnUse" id="__id1_scg60tw2nl" x1="70.87" x2="65.28"
            y1="29.54" y2="139.41">
            <stop offset="0" style="stop-color: rgb(255, 189, 89);"></stop>
            <stop offset="1" style="stop-color: rgb(255, 189, 89);"></stop>
        </linearGradient>
    </defs>
    <g>
        <path d="M98.03 35.9c2.02,5.37 3.32,11.06 3.8,16.94 0.92,11.44 -1.34,22.68 -6.26,32.61 -4.92,9.94 -12.48,18.56 -22.14,24.77l-4.42 2.84 -1.92 -4.9c-1.84,-4.7 -3.14,-9.49 -3.92,-14.28 -0.97,4.94 -2.51,9.8 -4.6,14.47l-2.05 4.58 -4.21 -2.7c-9.66,-6.21 -17.23,-14.84 -22.14,-24.77 -4.92,-9.94 -7.18,-21.17 -6.26,-32.61 0.49,-6.09 1.87,-11.97 4.01,-17.5 2.12,1.39 4.15,2.93 6.06,4.59 0.37,0.32 0.74,0.65 1.1,0.98 -1.34,4.03 -2.21,8.26 -2.56,12.61 -0.8,9.88 1.15,19.57 5.38,28.12 3.47,7.02 8.48,13.28 14.77,18.25 2.01,-5.86 3.06,-11.96 3.15,-18.07 0.11,-7.85 -1.37,-15.74 -4.46,-23.17 -1.06,-2.56 -2.3,-5.02 -3.7,-7.38l0 0c-3.2,-5.19 -6.88,-10 -11.43,-13.96 -4.22,-3.66 -8.95,-6.74 -14.06,-9.12l-0.13 -0.06 -0.04 -0.02 -0.09 -0.04 -0.13 -0.06 -0.03 -0.01 -0.1 -0.05 -0.14 -0.06 -0.14 -0.06 -0.14 -0.06 -0.01 -0 -0.13 -0.06 -0.14 -0.06c-8.62,10.55 -12.7,23.49 -12.31,36.29 0.42,13.72 5.99,27.28 16.6,37.57 10.6,10.27 24.33,15.41 38.07,15.41 13.74,0 27.47,-5.14 38.07,-15.41 10.61,-10.29 16.18,-23.86 16.6,-37.57 0.39,-12.77 -3.66,-25.68 -12.25,-36.22 -12.83,5.61 -19.06,12.22 -26.26,23.91l0 0c-1.39,2.34 -2.63,4.78 -3.69,7.28 -5.35,12.57 -6.5,26.93 -2.48,40.8 6.18,-4.95 11.11,-11.14 14.54,-18.07 4.23,-8.55 6.18,-18.24 5.38,-28.12 -0.33,-4.08 -1.12,-8.06 -2.33,-11.87 0.59,-0.56 1.2,-1.11 1.81,-1.65 1.69,-1.47 3.47,-2.84 5.32,-4.1zm-34.72 -13.93c4.17,0 7.56,3.38 7.56,7.56 0,4.18 -3.38,7.56 -7.56,7.56 -4.18,0 -7.56,-3.38 -7.56,-7.56 0,-4.17 3.38,-7.56 7.56,-7.56zm4.54 33.56c4.04,-9.48 10.17,-18.06 18.08,-25.01 -0.79,-1.33 -1.63,-2.63 -2.53,-3.89 -5.19,-7.27 -12.21,-13.24 -20.53,-17.21 -8.33,3.97 -15.34,9.94 -20.53,17.21 -0.69,0.97 -1.36,1.96 -1.98,2.98 1.29,1.07 2.53,2.19 3.74,3.36 6.48,6.28 11.7,13.87 15.23,22.37 1.95,4.7 3.35,9.58 4.18,14.52 0.94,-4.93 2.4,-9.74 4.36,-14.33zm24.94 -30.31c3.85,-2.61 8.02,-4.87 12.49,-6.71l2.79 -1.15 2.04 2.23c11.51,12.63 16.97,28.7 16.48,44.59 -0.49,15.9 -6.93,31.61 -19.2,43.51 -12.29,11.92 -28.19,17.88 -44.08,17.88 -15.89,0 -31.79,-5.96 -44.08,-17.88 -12.27,-11.9 -18.71,-27.61 -19.2,-43.51 -0.49,-15.89 4.97,-31.95 16.48,-44.59l1.97 -2.16 2.73 1.03c4.28,1.62 8.35,3.66 12.15,6.07 0.62,-0.98 1.27,-1.94 1.94,-2.89 6.45,-9.02 15.3,-16.32 25.83,-20.9l1.72 -0.75 1.72 0.75c10.53,4.58 19.38,11.88 25.83,20.9 0.83,1.17 1.63,2.36 2.38,3.58z" fill-rule="nonzero" style="fill: url(&quot;#__id1_scg60tw2nl&quot;);"></path>
    </g>
</svg>